<svg height="512pt" viewBox="0 -102 512 512" width="512pt" xmlns="http://www.w3.org/2000/svg"><path d="m512 221.269531c0 47.375-114.613281 85.785157-256 85.785157-29.027344 0-56.925781-1.617188-82.933594-4.597657-100.6875-11.554687-173.066406-43.539062-173.066406-81.1875 0-28.945312 42.769531-54.53125 108.28125-70.070312h295.425781c65.515625 15.539062 108.292969 41.125 108.292969 70.070312zm0 0" fill="#f0c398"/><path d="m173.085938 302.449219-.019532.007812c-100.6875-11.554687-173.066406-43.539062-173.066406-81.1875 0-28.945312 42.769531-54.53125 108.28125-70.070312h51.234375c4.972656 12.601562 2.839844 21.796875-11.085937 24.460937-60.59375 11.566406-68.085938 117.101563 24.65625 126.789063zm0 0" fill="#d89d6c"/><path d="m255.996094 213.101562c86.472656 0 148.421875-36.085937 148.421875-36.085937 0-61.273437-13.492188-177.015625-64.089844-177.015625-50.601563 0-47.90625 46.296875-84.332031 46.296875-36.421875 0-33.730469-46.296875-84.328125-46.296875-50.601563 0-64.09375 115.742188-64.09375 177.015625 0 0 61.949219 36.085937 148.421875 36.085937zm0 0" fill="#f0c398"/><path d="m211.804688 15.425781c-60.058594 60.054688-52.480469 152.058594-38.664063 186.816407-40.5-10.625-65.566406-25.222657-65.566406-25.222657 0-61.273437 13.488281-177.01562475 64.082031-177.01562475 19.574219 0 31.171875 6.92578175 40.148438 15.42187475zm0 0" fill="#d89d6c"/><path d="m404.417969 177.015625s-61.941407 36.082031-148.414063 36.082031c-86.476562 0-148.417968-36.082031-148.417968-36.082031 0-16.039063.929687-35.808594 3.195312-56.253906 13.742188 7.21875 70.269531 34.324219 145.222656 34.324219 74.9375 0 131.46875-27.105469 145.207032-34.335938h.011718c2.265625 20.457031 3.195313 40.226562 3.195313 56.265625zm0 0" fill="#515a5e"/><path d="m110.742188 121.046875c-2.25 20.34375-3.167969 40.007813-3.167969 55.96875 0 0 25.066406 14.597656 65.566406 25.226563-5.332031-13.417969-9.730469-35.363282-9.675781-60.707032-26.835938-7.898437-45.542969-17.023437-52.683594-20.777344-.007812.09375-.027344.195313-.039062.289063zm0 0" fill="#343c3f"/></svg>