<?xml version="1.0" encoding="utf-8"?>
<!-- Generator: Adobe Illustrator 27.4.1, SVG Export Plug-In . SVG Version: 6.00 Build 0)  -->
<svg version="1.1" id="Calque_1" xmlns="http://www.w3.org/2000/svg" xmlns:xlink="http://www.w3.org/1999/xlink" x="0px" y="0px"
	 viewBox="0 0 512 512" style="enable-background:new 0 0 512 512;" xml:space="preserve">
<style type="text/css">
	.st0{fill:#F0C398;}
	.st1{fill:#D89D6C;}
	.st2{fill:#515A5E;}
	.st3{fill:#343C3F;}
</style>
<g>
	<path class="st0" d="M506.9,321.9c0,46.4-112.3,84.1-250.9,84.1c-28.4,0-55.8-1.6-81.3-4.5C76,390.2,5.1,358.8,5.1,321.9
		c0-28.4,41.9-53.4,106.1-68.7h289.5C465,268.5,506.9,293.6,506.9,321.9z"/>
	<path class="st1" d="M174.7,401.5L174.7,401.5C76,390.2,5.1,358.8,5.1,321.9c0-28.4,41.9-53.4,106.1-68.7h50.2
		c4.9,12.4,2.8,21.4-10.9,24C91.2,288.6,83.8,392,174.7,401.5z"/>
	<path class="st0" d="M256,313.9c84.8,0,145.5-35.4,145.5-35.4c0-60.1-13.2-173.5-62.8-173.5c-49.6,0-47,45.4-82.7,45.4
		c-35.7,0-33.1-45.4-82.7-45.4c-49.6,0-62.8,113.4-62.8,173.5C110.5,278.5,171.2,313.9,256,313.9z"/>
	<path class="st1" d="M212.7,120.2c-58.9,58.9-51.4,149-37.9,183.1c-39.7-10.4-64.3-24.7-64.3-24.7c0-60.1,13.2-173.5,62.8-173.5
		C192.5,105.1,203.9,111.8,212.7,120.2z"/>
	<path class="st2" d="M401.5,278.5c0,0-60.7,35.4-145.5,35.4c-84.8,0-145.5-35.4-145.5-35.4c0-15.7,0.9-35.1,3.1-55.1
		c13.5,7.1,68.9,33.6,142.3,33.6c73.4,0,128.9-26.6,142.3-33.7h0C400.6,243.5,401.5,262.8,401.5,278.5z"/>
	<path class="st3" d="M113.6,223.7c-2.2,19.9-3.1,39.2-3.1,54.9c0,0,24.6,14.3,64.3,24.7c-5.2-13.2-9.5-34.7-9.5-59.5
		c-26.3-7.7-44.6-16.7-51.6-20.4C113.7,223.5,113.6,223.6,113.6,223.7z"/>
</g>
</svg>
