<?xml version="1.0" encoding="utf-8"?>
<!-- Generator: Adobe Illustrator 27.5.0, SVG Export Plug-In . SVG Version: 6.00 Build 0)  -->
<svg version="1.1" id="Calque_1" xmlns="http://www.w3.org/2000/svg" xmlns:xlink="http://www.w3.org/1999/xlink" x="0px" y="0px"
	 viewBox="0 0 1920 1080" style="enable-background:new 0 0 1920 1080;" xml:space="preserve">
  <defs>
	<clipPath id="mask">
		<path class="st0" d="M1920,0h-501.9c-5.3,57.5,42.6,113.2,7.4,181.5c-24.9,48.4-58.7,39.4-99,102c-33.1,51.5-15.7,66.1-53,144
			c-36.2,75.6-59.2,75.6-62,117c-4,60.2,43.7,73.6,38,133c-4.9,50.8-41.4,57.3-46,112c-3.5,41.9,14.7,74.9,28,99
			c41.3,74.9,88.5,72.3,124,133c12.8,21.9,17.7,41,19.4,58.5H1920V0z"/>
	</clipPath>
  </defs>
</svg>
